<svg version="1.2" xmlns="http://www.w3.org/2000/svg" viewBox="0 0 45 39" width="45" height="39">
	<title>Product Detail Page</title>
	<style>
		tspan { white-space:pre } 
		.s0 { fill: #1cb8ea } 
	</style>
	<g id="product info">
		<path id="Shape 101 copy 2" fill-rule="evenodd" class="s0" d="m12.8 2c11.1-3.6 25.1-0.2 29.9 11.4 4.4 10.7-1.1 22.1-12.5 25-10.9 2.7-23.4-2.1-28.3-12.6-4.3-9.1 0.6-21.4 10.7-23.7 0-0.1 0.1-0.1 0.2-0.1zm27.9 24.7c1.6-4.5 1.2-9.5-1-13.6-5.1-9.2-16.4-11.6-25.9-8.7q-0.2 0.1-0.4 0.1c-9.5 2.1-13.3 14.1-8.3 21.9 5.1 8.2 15.9 12.2 25.1 9.3 4.5-1.4 8.9-4.4 10.5-9zm-11.5-16.7c0.6-1.5 3.1-0.8 2.5 0.7-2.4 6.2-5.3 12.2-8.8 17.9-1.1 1.7-2.2 2.7-4.1 1.5-2.4-1.5-4.3-3.9-5.9-6.1-0.9-1.3 1.3-2.6 2.3-1.3 0.3 0.5 4.9 5.4 5 5.4 1.1-1.9 2.2-3.8 3.3-5.7 2.1-4 4-8.1 5.7-12.4z"/>
	</g>
</svg>